<svg width="110" height="102" viewBox="0 0 110 102" fill="none" xmlns="http://www.w3.org/2000/svg">
<path d="M80.312 53.3842C71.9611 53.3842 71.9611 48 63.6103 48C55.2643 48 55.2643 53.3842 46.9135 53.3842C38.5627 53.3842 38.5627 48 30.2214 48C22.0387 48 21.8658 53.1681 14 53.3728V57.9607C21.8754 57.7598 22.0387 52.5879 30.2214 52.5879C38.5723 52.5879 38.5723 57.9721 46.9231 57.9721C55.2691 57.9721 55.2691 52.5879 63.6151 52.5879C71.9611 52.5879 71.9611 57.9721 80.312 57.9721C88.0817 57.9721 88.6196 53.3084 95.4001 52.6638V48.0758C88.6196 48.7204 88.0817 53.3842 80.312 53.3842Z" fill="#FFACB7"/>
<path d="M106.284 43.0922C106.284 45.9094 103.398 48.1882 99.84 48.1882H10.4492C6.89085 48.1882 4 45.9094 4 43.0922C4 40.2826 6.89085 38 10.4492 38H99.84C103.398 38 106.284 40.2826 106.284 43.0922Z" fill="#F8B3BC"/>
<path d="M109.266 33.4796C109.348 43.4934 84.7996 33.0625 54.6713 33.0625C24.5382 33.0625 1.52661 43.0042 0.158019 33.4796C-2.00772 18.4266 18.2043 0.408636 53.6724 0.00671926C90.3027 -0.406572 109.151 18.3281 109.266 33.4796Z" fill="#F8B3BC"/>
<path d="M60.7831 9.001C60.7831 9.5887 58.9103 10.1309 58.1612 10.1309C57.4168 10.1309 56.8118 9.65696 56.8118 9.06546C56.8118 8.47775 57.4168 8 58.1612 8C58.9103 8 60.7831 8.4095 60.7831 9.001Z" fill="white"/>
<path d="M70.9827 15.4241C70.5601 14.8553 71.9719 13.4903 72.6874 13.1567C73.4077 12.823 74.3393 13.0088 74.7619 13.5775C75.1845 14.1463 74.9444 14.8781 74.2241 15.2117C73.5038 15.5492 71.4101 15.9928 70.9827 15.4241Z" fill="white"/>
<path d="M65.8301 11.2987C65.4027 10.7338 66.8145 9.36879 67.5348 9.03512C68.2503 8.69766 69.1819 8.89104 69.5997 9.45599C70.0271 10.021 69.787 10.7565 69.0667 11.0902C68.3512 11.4239 66.2526 11.8675 65.8301 11.2987Z" fill="white"/>
<path d="M46.1896 11.2987C45.7622 10.7338 47.174 9.36878 47.8943 9.03132C48.6098 8.69766 49.5366 8.88724 49.964 9.4522C50.3866 10.0209 50.1465 10.7527 49.4261 11.0902C48.7058 11.4239 46.6121 11.8675 46.1896 11.2987Z" fill="white"/>
<path d="M46.7322 16.8194C46.6121 16.2355 48.3505 15.462 49.09 15.3672C49.8247 15.2724 50.5162 15.6667 50.6411 16.2507C50.7611 16.8308 50.2617 17.3768 49.527 17.4716C48.7875 17.5664 46.8522 17.3995 46.7322 16.8194Z" fill="white"/>
<path d="M35.3561 11.7727C35.8939 12.277 34.775 13.805 34.1363 14.2221C33.4929 14.6468 32.5421 14.5747 32.0042 14.0705C31.4712 13.5624 31.5576 12.8116 32.2011 12.3907C32.8446 11.9661 34.8278 11.2646 35.3561 11.7727Z" fill="white"/>
<path d="M11.7058 27.9442C12.2388 28.4485 11.1199 29.9765 10.4764 30.3936C9.83777 30.8182 8.88696 30.7462 8.34913 30.2419C7.8161 29.7338 7.90254 28.9793 8.54602 28.5622C9.18949 28.1413 11.1679 27.4323 11.7058 27.9442Z" fill="white"/>
<path d="M28.3402 15.7729C28.8684 16.281 27.7544 17.8053 27.1157 18.2261C26.4722 18.647 25.5214 18.5788 24.9836 18.0707C24.4505 17.5664 24.5418 16.8118 25.1804 16.391C25.8239 15.9701 27.8024 15.2648 28.3402 15.7729Z" fill="white"/>
<path d="M19.7397 25.9384C20.1382 26.3175 19.3075 27.4512 18.8273 27.7659C18.3519 28.0769 17.6412 28.0276 17.2474 27.6484C16.8488 27.273 16.9113 26.7119 17.3915 26.4009C17.8717 26.0862 19.3459 25.563 19.7397 25.9384Z" fill="white"/>
<path d="M33.1999 19.9968C32.6237 20.194 31.476 19.2499 31.2311 18.7987C30.9814 18.3475 31.2407 17.8242 31.8169 17.627C32.3836 17.4337 33.0511 17.6384 33.2912 18.0896C33.5361 18.537 33.7666 19.8035 33.1999 19.9968Z" fill="white"/>
<path d="M71.2852 19.9968C70.7138 20.194 69.5661 19.2499 69.3212 18.7987C69.0715 18.3475 69.3356 17.8242 69.9022 17.627C70.4689 17.4337 71.1364 17.6384 71.3813 18.0896C71.631 18.537 71.8567 19.8035 71.2852 19.9968Z" fill="white"/>
<path d="M40.8736 16.6033C40.3022 16.7967 39.1593 15.8526 38.9096 15.4013C38.6647 14.9539 38.9192 14.4307 39.4907 14.2335C40.0621 14.0363 40.7248 14.2449 40.9745 14.6923C41.2242 15.1435 41.4451 16.4061 40.8736 16.6033Z" fill="white"/>
<path d="M60.6726 12.6979C61.2057 13.2022 60.0916 14.7264 59.4529 15.1473C58.8094 15.572 57.8538 15.5037 57.3208 14.9956C56.7877 14.4875 56.8742 13.7368 57.5177 13.3159C58.1563 12.8912 60.1348 12.1898 60.6726 12.6979Z" fill="white"/>
<path d="M15.4898 22.6207C15.5282 22.086 17.2666 21.6689 17.9437 21.7031C18.6208 21.7372 19.1346 22.1884 19.0914 22.7268C19.0578 23.2614 18.4719 23.6672 17.7948 23.6368C17.1225 23.6103 15.4562 23.1553 15.4898 22.6207Z" fill="white"/>
<path d="M80.3756 14.7226C80.414 14.188 82.1475 13.7709 82.8246 13.805C83.5017 13.8354 84.0204 14.2942 83.9772 14.8288C83.9387 15.3596 83.3625 15.7691 82.6854 15.7388C82.0083 15.7085 80.3371 15.2572 80.3756 14.7226Z" fill="white"/>
<path d="M93.6677 23.0226C93.2452 22.4576 94.6522 21.0888 95.3725 20.7552C96.0928 20.4215 97.0196 20.6073 97.447 21.176C97.8696 21.7486 97.6247 22.4766 96.9091 22.814C96.1888 23.1439 94.0903 23.5875 93.6677 23.0226Z" fill="white"/>
<path d="M98.7339 28.9262C98.7723 28.3916 100.506 27.9783 101.183 28.0086C101.86 28.039 102.374 28.4977 102.336 29.0324C102.297 29.567 101.716 29.9765 101.044 29.9424C100.362 29.912 98.6955 29.4608 98.7339 28.9262Z" fill="white"/>
<path d="M85.2161 18.4991C85.2545 17.9645 86.9929 17.5512 87.67 17.5777C88.3471 17.6081 88.8609 18.0669 88.8225 18.6015C88.7841 19.1361 88.1982 19.5456 87.5211 19.5153C86.8488 19.485 85.1777 19.03 85.2161 18.4991Z" fill="white"/>
<path d="M79.312 63.3842C70.9611 63.3842 70.9611 58 62.6103 58C54.2643 58 54.2643 63.3842 45.9135 63.3842C37.5627 63.3842 37.5627 58 29.2214 58C21.0387 58 20.8658 63.1681 13 63.3728V67.9607C20.8754 67.7598 21.0387 62.5879 29.2214 62.5879C37.5723 62.5879 37.5723 67.9721 45.9231 67.9721C54.2691 67.9721 54.2691 62.5879 62.6151 62.5879C70.9611 62.5879 70.9611 67.9721 79.312 67.9721C87.0817 67.9721 87.6196 63.3084 94.4001 62.6638V58.0758C87.6196 58.7204 87.0817 63.3842 79.312 63.3842Z" fill="#FFACB7"/>
<path d="M106.284 73.0922C106.284 75.9018 103.398 78.1844 99.84 78.1844H10.4492C6.89085 78.1844 4 75.9018 4 73.0922C4 70.2788 6.89085 68 10.4492 68H99.84C103.398 68 106.284 70.2788 106.284 73.0922Z" fill="#FFACB7"/>
<path d="M0.000179905 82.3423C-0.0766534 72.3323 24.4668 82.7632 54.5951 82.7632C84.7233 82.7632 107.735 72.8214 109.103 82.3423C111.269 97.3991 97.2231 101.589 53.2937 101.843C11.5204 102.086 0.110628 97.4939 0.000179905 82.3423Z" fill="#FFACB7"/>
</svg>
