<svg xmlns="http://www.w3.org/2000/svg" viewBox="0 0 23.55 20.46"><defs><style>.cls-1{fill:#4d443c;}.cls-2{fill:#fff;fill-rule:evenodd;}.cls-3{fill:#a6a19d;}</style></defs><title>15_2</title><g id="Layer_2" data-name="Layer 2"><g id="Layer_1-2" data-name="Layer 1"><path class="cls-1" d="M14.22,20.43a.29.29,0,0,1,0-.57h5.45a.29.29,0,0,1,0,.57Z"/><path class="cls-1" d="M17,19.08a.29.29,0,0,1,0-.57h1.72a.29.29,0,0,1,0,.57Z"/><path class="cls-1" d="M16.44,19.92a.29.29,0,1,1,0-.57h6.83a.29.29,0,1,1,0,.57Z"/><path class="cls-2" d="M2.48,14.37H17.26c.53,0,1.15.47,1,1L17,18.76c-.27.73-.64,1.42-1.42,1.42H4.17c-.78,0-1.15-.69-1.42-1.42L1.51,15.33c-.18-.5.44-1,1-1"/><path class="cls-1" d="M9.87,14.65H2.48a.8.8,0,0,0-.27,0,.86.86,0,0,0-.33.21.36.36,0,0,0-.11.24.24.24,0,0,0,0,.08L3,18.66a3,3,0,0,0,.47.9.87.87,0,0,0,.69.33h11.4a.87.87,0,0,0,.69-.33,3,3,0,0,0,.47-.9L18,15.24a.25.25,0,0,0,0-.08.36.36,0,0,0-.11-.24.86.86,0,0,0-.33-.21.8.8,0,0,0-.27,0Zm-7.39-.57H17.26a1.38,1.38,0,0,1,.46.09,1.43,1.43,0,0,1,.56.36.92.92,0,0,1,.27.63.81.81,0,0,1-.05.28l-1.24,3.42a3.47,3.47,0,0,1-.57,1.07,1.41,1.41,0,0,1-1.12.54H4.17a1.41,1.41,0,0,1-1.12-.54,3.47,3.47,0,0,1-.57-1.07L1.24,15.43a.81.81,0,0,1-.05-.28.92.92,0,0,1,.27-.63A1.44,1.44,0,0,1,2,14.17,1.37,1.37,0,0,1,2.48,14.08Z"/><path class="cls-1" d="M9.62,14.38a.29.29,0,1,1,.57,0v3a.29.29,0,1,1-.57,0Z"/><path class="cls-1" d="M9.58,18.66a.29.29,0,0,1,.57,0v1.42a.29.29,0,0,1-.57,0Z"/><path class="cls-1" d="M7,20a.29.29,0,0,1-.56.11L5.35,14.53a.29.29,0,1,1,.56-.11Z"/><path class="cls-1" d="M14.33,16.42a.29.29,0,1,1-.56-.11l.38-1.89a.29.29,0,1,1,.56.11Zm-.74,3.7A.29.29,0,0,1,13,20l.5-2.52a.29.29,0,1,1,.56.11Z"/><path class="cls-2" d="M14.5,8.44a3.81,3.81,0,1,1-1.93,6.33,3.81,3.81,0,0,1-5.27.28l-.47-.14a3.81,3.81,0,1,1-4-6.27,5.88,5.88,0,0,1,11.65-.2"/><path class="cls-1" d="M15,8.66l-.37.06h0a.29.29,0,0,1-.32-.24,5.59,5.59,0,0,0-11.08.18.29.29,0,0,1-.19.24,3.53,3.53,0,1,0,3.67,5.8.29.29,0,0,1,.29-.07l.22.07h0l.22.06a.29.29,0,0,1,.12.06,3.52,3.52,0,0,0,4.88-.26h0a.29.29,0,0,1,.4,0,3.53,3.53,0,1,0,2.57-5.94l-.4,0m-.22-.55.16,0,.46,0a4.1,4.1,0,1,1-2.78,7.11,4.09,4.09,0,0,1-5.4.14L7,15.26H7l-.08,0A4.1,4.1,0,1,1,2.6,8.43a6.16,6.16,0,0,1,12.14-.32Z"/><path class="cls-1" d="M14.2,8.31a.29.29,0,1,1,.57-.06,6.17,6.17,0,0,1,0,1.85,5.82,5.82,0,0,1-.54,1.51.28.28,0,1,1-.51-.25A5.29,5.29,0,0,0,14.17,10a5.62,5.62,0,0,0,0-1.68"/><path class="cls-2" d="M12.17,1.22a2,2,0,1,0,2,2,2,2,0,0,0-2-2"/><path class="cls-1" d="M10.53,1.62a2.33,2.33,0,1,1-.68,1.65,2.32,2.32,0,0,1,.68-1.65m1.65-.11A1.76,1.76,0,1,0,13.42,2,1.75,1.75,0,0,0,12.17,1.51Z"/><path class="cls-1" d="M12.66,2.84a.28.28,0,1,1-.55-.13,3.51,3.51,0,0,1,.8-1.53A4.8,4.8,0,0,1,14.52,0a.29.29,0,1,1,.24.52,4.25,4.25,0,0,0-1.42,1,3,3,0,0,0-.67,1.29"/><path class="cls-3" d="M5.83,6.76a.28.28,0,1,1-.42-.38A4.7,4.7,0,0,1,6.94,5.23a4.32,4.32,0,0,1,1.82-.4.29.29,0,0,1,0,.57,3.76,3.76,0,0,0-1.58.35,4.14,4.14,0,0,0-1.35,1m-.62,4a.29.29,0,0,1-.53.22,4.39,4.39,0,0,1-.26-.84v0a4.44,4.44,0,0,1-.08-.85.29.29,0,1,1,.57,0A3.85,3.85,0,0,0,5,10v0A3.8,3.8,0,0,0,5.22,10.73Z"/></g></g></svg>