<?xml version="1.0" ?><svg viewBox="0 0 512 512" xmlns="http://www.w3.org/2000/svg"><title/><g id="Sandwich"><path d="M193.1729,459.5862H461.8192a10.9333,10.9333,0,0,0,10.9332-10.9333V199.329a6.6977,6.6977,0,0,0-11.2286-4.9325L187.813,445.8281A7.9231,7.9231,0,0,0,193.1729,459.5862Zm243.0726-83.4754L376.132,432.8849a5.5539,5.5539,0,0,1-7.6265-8.0758l60.1135-56.7739a5.5538,5.5538,0,1,1,7.6265,8.0756Zm-110.6509-3.03,48.0272-45.3588a5.5538,5.5538,0,0,1,7.6264,8.0758l-48.0271,45.3587a5.5538,5.5538,0,0,1-7.6265-8.0757Zm108.3883-56.0734a5.5538,5.5538,0,1,1,7.6265,8.0756L323.9906,436.167a5.5538,5.5538,0,1,1-7.6264-8.0757ZM291.6082,403.7458l15.356-14.6558a5.5537,5.5537,0,1,1,7.6689,8.0351l-15.3559,14.6557a5.5537,5.5537,0,0,1-7.669-8.035Z"/><path d="M500.0671,114.6372a32.1055,32.1055,0,0,0-11.8232-10.95L452.3473,84.3691a55.0142,55.0142,0,0,0,1.5784-15.2479,54.5733,54.5733,0,0,0-109.07.0495,54.6044,54.6044,0,0,0-56.5153,52.5147c-.6651-.02-1.33-.04-1.9854-.04a54.6485,54.6485,0,0,0-54.53,52.5544c-.6651-.02-1.33-.04-1.9854-.04a54.664,54.664,0,0,0-54.54,52.5544c-.6651-.02-1.32-.04-1.9854-.04a54.6484,54.6484,0,0,0-54.53,52.5543A54.623,54.623,0,0,0,62.27,331.7441,54.5734,54.5734,0,0,0,5.7442,388.3587a54.89,54.89,0,0,0,51.254,52.3856,32.5984,32.5984,0,0,0,2.8789,4.7551l23.7457,32.4915a32.2409,32.2409,0,0,0,25.9794,13.1833H472.9958A32.1733,32.1733,0,0,0,505.17,459V132.02A32.0951,32.0951,0,0,0,500.0671,114.6372ZM82.61,421.4459a41.326,41.326,0,0,1-24.52,6.4427A41.8976,41.8976,0,0,1,18.64,387.8822,41.6884,41.6884,0,0,1,60.284,344.61c1.0226,0,2.055.04,3.0874.119a10.9175,10.9175,0,0,0,11.7637-10.9595,41.7167,41.7167,0,0,1,41.6643-41.6744c1.0225,0,2.0549.04,3.0873.1193a10.9175,10.9175,0,0,0,11.7637-10.96A41.7166,41.7166,0,0,1,173.3147,239.58c1.0225,0,2.0648.04,3.0874.1191a10.9034,10.9034,0,0,0,11.7636-10.96A41.7187,41.7187,0,0,1,229.84,187.0657c1.0225,0,2.0549.04,3.0874.1191a10.9175,10.9175,0,0,0,11.7637-10.96,41.7166,41.7166,0,0,1,41.6643-41.6742c1.0224,0,2.0549.04,3.0873.1192a10.9178,10.9178,0,0,0,11.7637-10.96,41.7165,41.7165,0,0,1,41.6643-41.6742c1.0225,0,2.0648.04,3.0873.119a10.9034,10.9034,0,0,0,11.7637-10.96,41.6559,41.6559,0,0,1,41.8629-41.6644A42.0324,42.0324,0,0,1,441.03,69.5976a41.598,41.598,0,0,1-13.9675,32.74,1.045,1.045,0,0,1-.1092.0893c-7.4556,6.9373-15.3533,14.2754-23.5916,21.9417a71.2,71.2,0,0,0-27.7677-6.6589,72.4582,72.4582,0,0,0-70.9656,49.5063,21.4021,21.4021,0,0,1-15.2112,13.8079,71.8335,71.8335,0,0,0-49.9949,46.7211,21.8755,21.8755,0,0,1-15.2412,14.2674,71.7654,71.7654,0,0,0-50.1283,46.7512,21.9274,21.9274,0,0,1-15.2979,14.2727,72.1036,72.1036,0,0,0-53.7686,73.1784,70.9138,70.9138,0,0,0,4.2035,21.0187C94.0638,411.1525,84.4517,419.9263,82.61,421.4459ZM407.9172,141.9874a4.6444,4.6444,0,0,1,1.9112,3.4953,4.4028,4.4028,0,0,1-1.4406,3.5361l-276.12,253.5478a4.4268,4.4268,0,0,1-3.7566,1.1284,4.5466,4.5466,0,0,1-3.2637-2.29,58.0673,58.0673,0,0,1-7.37-25.7927,59.4837,59.4837,0,0,1,44.1278-60.0869,34.7915,34.7915,0,0,0,24.2775-22.6425,58.9055,58.9055,0,0,1,41.1439-38.38,34.7409,34.7409,0,0,0,24.2265-22.641,58.9635,58.9635,0,0,1,41.0334-38.3533,34.2468,34.2468,0,0,0,24.2023-22.2649,59.51,59.51,0,0,1,56.277-40.67c.6612,0,1.3267.0111,1.9908.0334A58.5889,58.5889,0,0,1,407.9172,141.9874ZM492.2644,459a19.2939,19.2939,0,0,1-19.2686,19.2685H123.1428L492.2644,139.326Z"/></g></svg>