<?xml version="1.0" ?><svg viewBox="0 0 512 512" xmlns="http://www.w3.org/2000/svg"><title/><g id="Taco"><path d="M497.43,251.2a97,97,0,0,0-14.2349-30.5595,54.8317,54.8317,0,0,0,2.9749-20.55c-1.05-22.76-11.45-34.96-23.28-41.43a48.4383,48.4383,0,0,0-48.03-42.63h-.31c-10.32-13.59-26.46-21.57-44.96-21.57a56.63,56.63,0,0,0-33.12,10.63,12.7959,12.7959,0,0,1-16.28-1.28,65.7545,65.7545,0,0,0-45.78-18.48,75.1848,75.1848,0,0,0-20.3424,2.7594H220.2617a193.4466,193.4466,0,0,0-100.1362,27.8681,188.7222,188.7222,0,0,0-70.7236,75.9654c-36.25,71.3291-37.2354,155.9633-37.065,172.205l.0039.4214a6.498,6.498,0,0,0,.0327.749A71.2173,71.2173,0,0,0,11.7,378.18c.4333,11.0218,1.3409,26.54,5.4364,37.892.0249.1227.0314.2457.0636.368.43,1.63,11.25,39.99,77.14,57.06a198.227,198.227,0,0,0,49.6,6.21,207.6291,207.6291,0,0,0,37.81-3.48c47.14-8.78,108.77-27.9,164.86-51.15,61.68-25.57,108.81-52.63,132.69-76.16,12.8039-12.4491,18.1932-33.1886,16.288-57.4193C499.42,279.2441,501.0906,265.3263,497.43,251.2ZM414.86,128.03a36.3666,36.3666,0,0,1,34.73,25.57,36.331,36.331,0,0,1-3.89,30.06,178.92,178.92,0,0,0-58.46-42.89A36.2946,36.2946,0,0,1,414.86,128.03ZM89.8311,219.1924a36.3205,36.3205,0,0,1,40.5048-36.1283A51.79,51.79,0,0,0,128.15,194.8a52.9049,52.9049,0,0,0,1.21,15.54,12.79,12.79,0,0,1-10.91,15.55c-7.8228.9639-17.1914,3.1624-25.548,7.9056A36.1483,36.1483,0,0,1,89.8311,219.1924ZM90.29,409.07a36.3654,36.3654,0,1,1,29.17-65.63c-5.12,16.84-9.96,32.74-14.8,45.3A50.7443,50.7443,0,0,1,90.29,409.07ZM60.9907,197.8125a175.7359,175.7359,0,0,1,65.8628-70.7314,180.4467,180.4467,0,0,1,93.4082-25.9917h9.1272A59.5936,59.5936,0,0,0,209.33,137.16a12.7947,12.7947,0,0,1-15.68,10.4,52.5658,52.5658,0,0,0-58.2483,24.1509,48.3365,48.3365,0,0,0-52.2574,69.4784C74.7759,249.6235,69.335,262.4174,71.12,281.82c.35,3.77.75,7.47,1.39,11.04a12.7494,12.7494,0,0,1-9.05,14.6,70.5137,70.5137,0,0,0-36.9375,24.6679C29.1036,298.2292,37.0562,244.9091,60.9907,197.8125ZM470.21,339.63C429.9,379.36,294.07,442.1,179.37,463.44a189.77,189.77,0,0,1-81.77-2.53c-16.37-4.24-38.97-12.6-54.82-28.49.09.03.19.05.28.08a62.7108,62.7108,0,0,0,51.73-10.44,63.68,63.68,0,0,0,21.99-28.64c4.38-11.34,8.66-25.03,13.12-39.67q1.02-3.375,2.07-6.81c.7-2.29,1.4-4.61,2.12-6.95,23.94-78.54,57.88-181.4,156.17-198.07,29.52-5.01,56.01-2.19,79.19,5.86q5.715,1.965,11.16,4.37c22.23,9.75,41.07,24.35,56.28,41.17q4.05,4.485,7.75,9.16a191.4806,191.4806,0,0,1,20.68,32.23C486.92,277.26,488.99,321.37,470.21,339.63Z"/><ellipse cx="203.4567" cy="297.04" rx="6.5386" ry="10.9506"/><ellipse cx="347.1111" cy="212.3995" rx="6.5386" ry="10.9506"/><ellipse cx="290.5975" cy="198.6599" rx="6.5386" ry="10.9506"/><ellipse cx="402.534" cy="232.9606" rx="7.4946" ry="10.9506"/><ellipse cx="246.0833" cy="249.2856" rx="7.4946" ry="10.9506"/><ellipse cx="305.7628" cy="268.5691" rx="7.4946" ry="10.9506"/></g></svg>